<?xml version="1.0" encoding="UTF-8" standalone="no" ?>
<!DOCTYPE svg PUBLIC "-//W3C//DTD SVG 1.1//EN" "http://www.w3.org/Graphics/SVG/1.1/DTD/svg11.dtd">
<svg xmlns="http://www.w3.org/2000/svg" xmlns:xlink="http://www.w3.org/1999/xlink" version="1.1" width="1080" height="1080" viewBox="0 0 1080 1080" xml:space="preserve">
<desc>Created with Fabric.js 5.2.4</desc>
<defs>
</defs>
<g transform="matrix(1 0 0 1 540 540)" id="f64c82ed-1ff4-4d06-95a9-eb6b4238ace7"  >
<rect style="stroke: none; stroke-width: 1; stroke-dasharray: none; stroke-linecap: butt; stroke-dashoffset: 0; stroke-linejoin: miter; stroke-miterlimit: 4; fill: rgb(255,255,255); fill-rule: nonzero; opacity: 1; visibility: hidden;" vector-effect="non-scaling-stroke"  x="-540" y="-540" rx="0" ry="0" width="1080" height="1080" />
</g>
<g transform="matrix(1 0 0 1 540 540)" id="ee4e172e-b443-454e-8276-e94660323c6b"  >
</g>
<g transform="matrix(1 0 0 1 540 540)"  >
<g style="" vector-effect="non-scaling-stroke"   >
		<g transform="matrix(1.6 0 0 1.6 -0.8 -120)"  >
<path style="stroke: none; stroke-width: 1; stroke-dasharray: none; stroke-linecap: butt; stroke-dashoffset: 0; stroke-linejoin: miter; stroke-miterlimit: 4; fill: rgb(67,228,92); fill-rule: nonzero; opacity: 1;" vector-effect="non-scaling-stroke"  transform=" translate(-24.5, -167)" d="M 0 0 L 54 0 L 84 2 L 128 7 L 164 13 L 194 20 L 209 25 L 218 31 L 223 37 L 225 43 L 225 120 L 215 124 L 201 131 L 193 138 L 186 148 L 181 160 L 180 165 L 179 312 L 178 327 L 173 330 L 165 333 L 159 333 L 147 328 L 135 325 L 126 324 L 109 324 L 68 330 L 48 332 L -2 332 L -36 328 L -55 325 L -70 324 L -87 326 L -104 331 L -111 334 L -116 333 L -128 328 L -129 327 L -130 176 L -131 163 L -135 151 L -142 140 L -150 132 L -166 124 L -175 121 L -176 119 L -176 44 L -174 38 L -170 32 L -165 28 L -155 23 L -136 18 L -102 11 L -62 5 L -34 2 z" stroke-linecap="round" />
</g>
		<g transform="matrix(1.6 0 0 1.6 0 129.6)"  >
<path style="stroke: none; stroke-width: 1; stroke-dasharray: none; stroke-linecap: butt; stroke-dashoffset: 0; stroke-linejoin: miter; stroke-miterlimit: 4; fill: rgb(67,228,92); fill-rule: nonzero; opacity: 1;" vector-effect="non-scaling-stroke"  transform=" translate(-218, -161)" d="M 0 0 L 11 0 L 19 3 L 27 11 L 30 18 L 31 189 L 41 194 L 68 204 L 90 211 L 97 210 L 108 205 L 116 203 L 132 203 L 168 208 L 191 210 L 243 210 L 274 207 L 309 202 L 322 203 L 334 207 L 341 211 L 348 210 L 378 200 L 403 190 L 405 190 L 405 21 L 409 11 L 414 5 L 424 0 L 435 0 L 445 4 L 452 12 L 455 22 L 455 220 L 453 235 L 447 247 L 440 254 L 424 262 L 398 272 L 359 285 L 351 295 L 342 303 L 330 309 L 308 314 L 271 319 L 248 321 L 228 322 L 202 322 L 172 320 L 144 317 L 114 312 L 104 309 L 93 303 L 83 294 L 76 285 L 51 277 L 20 266 L 4 259 L -5 253 L -12 246 L -17 237 L -19 228 L -19 19 L -16 12 L -9 4 L -4 1 z" stroke-linecap="round" />
</g>
</g>
</g>
</svg>